<?xml version="1.0" standalone="yes"?>
<svg xmlns="http://www.w3.org/2000/svg" width="614" height="406">
<path style="fill:#010101; stroke:none;" d="M0 0L0 406L614 406L614 0L0 0z"/>
<path style="fill:#dfdcd8; stroke:none;" d="M274 137L268 139L268 140L275 138C273.632 127.233 270.761 102.235 290 106.942C296.377 108.502 303.853 117.644 310 117.122C316.581 116.563 322.132 108.491 329 106.968C347.825 102.791 344.215 127.57 344 138C350.473 125.828 346.902 102.571 329 105.214C321.765 106.282 316.04 114.891 309.424 115.324C303.957 115.682 296.024 106.883 290 105.53C270.977 101.257 270.918 125.089 274 137z"/>
<path style="fill:#eda84b; stroke:none;" d="M273 138L273 139C281.295 147.28 284.236 163.497 275 172C275.771 183.974 268.395 213.665 291 208.096C296.724 206.686 304.714 197.992 310 198.613C320.247 199.816 329.246 216.308 340.867 205.721C350.338 197.093 341.006 185.651 346 177L346 176C336.055 166.074 335.931 148.793 346 139C340.61 129.115 350.42 100.014 327 107.221C321.622 108.876 314.364 117.135 309 116.448C298.443 115.097 288.74 98.2586 277.279 110.225C269.201 118.658 277.691 129.874 273 138z"/>
<path style="fill:#dfdcd8; stroke:none;" d="M306 123C303.747 119.948 301.205 117.767 298 115.7C295.526 114.104 292.873 112.553 290 111.804C278.698 108.855 272.717 129.13 280.6 134.958C283.145 136.839 288.193 135.078 290.999 134.586C293.276 134.186 295.627 133.895 297.486 132.4C300.661 129.848 303.129 125.934 306 123M327 134L327 133L316 123L317 123L316 120C320.759 117.642 327.243 111.079 332.985 112.836C339.599 114.861 342.454 128.586 337.258 133.307C335.128 135.243 330.63 134.052 328 134C344.006 141.185 345.56 115.713 334.956 111.604C319.187 105.495 305.336 130.648 327 134z"/>
<path style="fill:#010101; stroke:none;" d="M304 121C300.669 118.806 297.586 116.168 294 114.378C281.197 107.986 272.146 127.228 281.6 133.933C284.038 135.663 289.338 133.995 291.985 133.37C295.012 132.654 296.775 131.317 298.741 128.941C300.829 126.417 302.644 123.961 304 121M316 120L317 122L317 123L316 123L315 121C315.576 124.386 317.33 126.396 319.72 128.942C321.581 130.925 323.366 132.485 326.015 133.277C328.623 134.057 334.866 135.694 337.258 133.933C346.301 127.274 337.388 107.848 325 114.138C321.807 115.76 318.91 117.932 316 120z"/>
<path style="fill:#dfdcd8; stroke:none;" d="M302 122L303 123L302 122M303 133L309 127L310 127L315 134C313.537 125.463 306.499 126.339 303 133z"/>
<path style="fill:#010101; stroke:none;" d="M309 127L305 133L307 131L314 133L309 127z"/>
<path style="fill:#dfdcd8; stroke:none;" d="M307 131L312 133L312 132L307 131z"/>
<path style="fill:#e77f2b; stroke:none;" d="M300 138L319 138C314.826 131.893 304.509 132.587 300 138z"/>
<path style="fill:#eda84b; stroke:none;" d="M285.667 135.333L286.333 135.667L285.667 135.333z"/>
<path style="fill:#e77f2b; stroke:none;" d="M280 137L281 141C286.163 140.333 291.359 139.906 294 135L280 137M324 135C327.211 139.813 331.641 139.99 337 141L338 137L324 135z"/>
<path style="fill:#eda84b; stroke:none;" d="M332.667 135.333L333.333 135.667L332.667 135.333z"/>
<path style="fill:#dfdcd8; stroke:none;" d="M346 138L346 139C366.488 144.902 375.151 164.009 352 174L352 175C377.729 167.429 367.948 141.912 346 138z"/>
<path style="fill:#eda84b; stroke:none;" d="M270.667 139.333L271.333 139.667L270.667 139.333z"/>
<path style="fill:#e77f2b; stroke:none;" d="M275 177L276 173C269.61 169.593 260.426 167.283 257.223 159.999C253.214 150.882 269.619 144.516 276 143L275 139C264.413 140.586 245.424 150.702 253.742 163.996C258.277 171.243 267.321 174.402 275 177z"/>
<path style="fill:#dfdcd8; stroke:none;" d="M298.326 140.028C275.687 153.616 298.872 187.902 320.79 174.973C343.453 161.605 319.735 127.177 298.326 140.028z"/>
<path style="fill:#e77f2b; stroke:none;" d="M344 139L343 143C349.45 144.764 361.426 148.979 362.083 157C362.784 165.55 349.5 170.456 343 172L344 176C372.041 171.859 372.031 143.202 344 139z"/>
<path style="fill:#eda84b; stroke:none;" d="M347.667 139.333L348.333 139.667L347.667 139.333z"/>
<path style="fill:#dfdcd8; stroke:none;" d="M251 155L252 155C254.355 148.077 260.615 144.021 267 141C259.867 139.834 252.283 148.639 251 155z"/>
<path style="fill:#eda84b; stroke:none;" d="M267.667 140.333L268.333 140.667L267.667 140.333M284 140L284 141L287 141L284 140z"/>
<path style="fill:#dfdcd8; stroke:none;" d="M287 140L287 141L290 141L285 149C284.114 145.933 283.29 143.996 286 142L286 141L282 141L284 151L292 140L287 140z"/>
<path style="fill:#010101; stroke:none;" d="M299.326 141.028C278.074 153.784 299.059 186.201 319.79 173.973C341.046 161.435 319.611 128.852 299.326 141.028z"/>
<path style="fill:#dfdcd8; stroke:none;" d="M327 140L333 151L335 151L338 142L333 141L333 142L336 142L334 149L333 149C332.359 145.954 327.844 141.536 332 141L327 140z"/>
<path style="fill:#eda84b; stroke:none;" d="M332 140L332 141L335 141L332 140M350 140L351 141L350 140M265.667 141.333L266.333 141.667L265.667 141.333z"/>
<path style="fill:#010101; stroke:none;" d="M283 142L285 149L290 141L283 142M329 141L333 149L334 149L336 142L329 141z"/>
<path style="fill:#eda84b; stroke:none;" d="M352 141L353 142L352 141M263 142L264 143L263 142M354 142L355 143L354 142M262 143L263 144L262 143M273.667 143.333L274.333 143.667L273.667 143.333z"/>
<path style="fill:#dfdcd8; stroke:none;" d="M257 157L258 157C261.593 149.318 268.781 147.216 276 144L280 158L276 171C268.707 168.517 261.413 165.298 258 158L257 158C258.124 163.523 272.509 176.618 277.725 169.667C284.598 160.51 279.18 152.417 277 143C268.994 144.853 259.141 148.182 257 157M342 143C336.684 154.993 339.218 159.982 342 172C355.576 169.965 371.742 154.649 352 147L352 148C368.518 157.556 354.745 166.325 343 171C340.309 159.372 340.309 155.628 343 144L351 147L342 143z"/>
<path style="fill:#eda84b; stroke:none;" d="M344.667 143.333L345.333 143.667L344.667 143.333M356 143L357 144L356 143M260 144L261 145L260 144M270.667 144.333L271.333 144.667L270.667 144.333z"/>
<path style="fill:#010101; stroke:none;" d="M276 171C279.952 159.318 279.387 155.682 276 144C269.837 146.009 261.112 148.336 258.412 155.004C254.755 164.035 269.651 169.492 276 171M343 144C339.24 155.537 339.24 159.463 343 171C349.602 169.086 364.968 163.676 359.971 154.04C356.954 148.221 348.751 145.946 343 144z"/>
<path style="fill:#eda84b; stroke:none;" d="M347 144L348 145L347 144M358 144L359 145L358 144M268 145L269 146L268 145M349.667 145.333L350.333 145.667L349.667 145.333M257 146L258 147L257 146M266 146L267 147L266 146z"/>
<path style="fill:#dfdcd8; stroke:none;" d="M298 156L299 156C302.599 145.445 319.191 143.661 319.847 157C320.532 170.922 302.854 170.305 299 159C295.459 170.326 317.345 172.786 320.566 160.999C324.869 145.257 301.202 140.142 298 156z"/>
<path style="fill:#eda84b; stroke:none;" d="M351.667 146.333L352.333 146.667L351.667 146.333M361 146L362 147L361 146M256 147L257 148L256 147M264 147L265 148L264 147M305.667 147.333L306.333 147.667L305.667 147.333z"/>
<path style="fill:#e77f2b; stroke:none;" d="M307.001 147.587C293.972 150.996 299.236 170.897 311.999 167.562C324.778 164.224 319.78 144.243 307.001 147.587z"/>
<path style="fill:#eda84b; stroke:none;" d="M312.667 147.333L313.333 147.667L312.667 147.333M354 147L355 148L354 147M362 147L363 148L362 147M255 148L256 149L255 148M262 148L263 149L262 148M303 148L304 149L303 148M315 148L316 149L315 148M355 148L356 149L355 148M363 148L364 149L363 148M254 149L255 150L254 149M261 149L262 150L261 149M302 149L303 150L302 149M316 149L317 150L316 149M357 149L358 150L357 149M364 149L365 150L364 149M253 150L254 151L253 150M260 150L261 151L260 150M301 150L302 151L301 150M317 150L318 151L317 150M358 150L359 151L358 150M300 151L301 152L300 151M318 151L319 152L318 151M359 151L360 152L359 151M365 151L366 152L365 151M252 152L253 153L252 152M258 152L259 153L258 152M360 152L361 153L360 152M257 153L258 154L257 153M299 153L300 154L299 153M319.333 153.667L319.667 154.333L319.333 153.667M361 153L362 154L361 153M366 153L367 154L366 153M251 155L251 160L252 160L251 155M256 155L256 160L257 160L256 155z"/>
<path style="fill:#dfdcd8; stroke:none;" d="M250 156L250 159L251 159L250 156z"/>
<path style="fill:#eda84b; stroke:none;" d="M298 156L298 159L299 159L298 156M362 156L362 159L363 159L362 156M367 156L367 159L368 159L367 156z"/>
<path style="fill:#dfdcd8; stroke:none;" d="M251 160C253.528 172.531 266.195 170.479 272.227 178.51C275.259 182.547 271.824 192.781 273.019 198C276.584 213.584 295.128 212.426 304 202C292.668 206.148 276.384 214.67 274.174 195C273.669 190.501 276.611 181.313 273.968 177.702C271.833 174.784 266.081 173.893 263 172.12C257.653 169.043 254.469 164.914 251 160z"/>
<path style="fill:#eda84b; stroke:none;" d="M319.333 160.667L319.667 161.333L319.333 160.667M257 161L258 162L257 161M299 161L300 162L299 161M361 161L362 162L361 161M366.333 161.667L366.667 162.333L366.333 161.667M252 162L253 163L252 162M360 162L361 163L360 162M300 163L301 164L300 163M318 163L319 164L318 163M359 163L360 164L359 163M365 163L366 164L365 163M253 164L254 165L253 164z"/>
<path style="fill:#dfdcd8; stroke:none;" d="M284 164L281 173L292 175L286 164L284 164z"/>
<path style="fill:#eda84b; stroke:none;" d="M301 164L302 165L301 164M317 164L318 165L317 164z"/>
<path style="fill:#dfdcd8; stroke:none;" d="M333 164L327 175L337 174L333 164z"/>
<path style="fill:#eda84b; stroke:none;" d="M358 164L359 165L358 164M254 165L255 166L254 165M261 165L262 166L261 165M302 165L303 166L302 165M316 165L317 166L316 165M357 165L358 166L357 165M364 165L365 166L364 165M255 166L256 167L255 166M262 166L263 167L262 166z"/>
<path style="fill:#010101; stroke:none;" d="M285 166L283 173L290 174L285 166z"/>
<path style="fill:#eda84b; stroke:none;" d="M303 166L304 167L303 166M315 166L316 167L315 166z"/>
<path style="fill:#010101; stroke:none;" d="M333 166L329 174L336 173L333 166z"/>
<path style="fill:#eda84b; stroke:none;" d="M356 166L357 167L356 166M363 166L364 167L363 166M256 167L257 168L256 167M264 167L265 168L264 167M305 167L306 168L305 167M313 167L314 168L313 167M354 167L355 168L354 167M362 167L363 168L362 167M257 168L258 169L257 168M266 168L267 169L266 168M309 168L310 169L309 168M352 168L353 169L352 168M361 168L362 169L361 168M258 169L259 170L258 169M268 169L269 170L268 169M350 169L351 170L350 169M360 169L361 170L360 169M260 170L261 171L260 170M270 170L271 171L270 170M348 170L349 171L348 170M358 170L359 171L358 170M261 171L262 172L261 171M273 171L274 172L273 171M345 171L346 172L345 171M357 171L358 172L357 171M263 172L264 173L263 172M355 172L356 173L355 172M265 173L266 174L265 173M353 173L354 174L353 173M267.667 174.333L268.333 174.667L267.667 174.333z"/>
<path style="fill:#e77f2b; stroke:none;" d="M282 174C280.973 180.727 290.18 179.839 295 181C292.647 175.383 287.349 175.503 282 174z"/>
<path style="fill:#eda84b; stroke:none;" d="M283.667 174.333L284.333 174.667L283.667 174.333z"/>
<path style="fill:#010101; stroke:none;" d="M290 174L291 175L290 174z"/>
<path style="fill:#eda84b; stroke:none;" d="M333.667 174.333L334.333 174.667L333.667 174.333z"/>
<path style="fill:#e77f2b; stroke:none;" d="M325 180L339 178L338 174C332.968 174.678 327.585 175.265 325 180z"/>
<path style="fill:#eda84b; stroke:none;" d="M350.667 174.333L351.333 174.667L350.667 174.333M270 175L271 176L270 175M347.667 175.333L348.333 175.667L347.667 175.333z"/>
<path style="fill:#dfdcd8; stroke:none;" d="M349.667 175.333L350.333 175.667L349.667 175.333z"/>
<path style="fill:#eda84b; stroke:none;" d="M273 176L274 177L273 176z"/>
<path style="fill:#dfdcd8; stroke:none;" d="M346 176L346 177L349 177L346 176z"/>
<path style="fill:#e77f2b; stroke:none;" d="M300 177C304.015 182.874 314.985 182.874 319 177L300 177z"/>
<path style="fill:#dfdcd8; stroke:none;" d="M344 177L344 180L345 180L346 177L344 177M291 181L291 182C306.582 184.455 302.121 201.654 288.001 202.562C277.506 203.238 276.956 184.115 284 180C275.668 177.27 275.72 201.49 285.005 204.084C301.885 208.8 312.498 182.622 291 181z"/>
<path style="fill:#eda84b; stroke:none;" d="M284 179L284 180L287 180L284 179M332 179L332 180L335 180L332 179z"/>
<path style="fill:#dfdcd8; stroke:none;" d="M335 179L335 180C342.071 183.886 342.251 202.375 331.996 202.443C312.082 202.575 316.516 181.753 334 181L334 180C323.28 180.221 320.143 184.705 313 192C317.326 198.011 331.43 209.253 338.297 200.772C342.533 195.54 342.994 180.388 335 179z"/>
<path style="fill:#010101; stroke:none;" d="M281.742 181.067C277.199 184.412 278.677 199.066 283.228 201.82C288.101 204.769 295.065 201.063 298.98 198.072C310.046 189.615 289.526 175.337 281.742 181.067z"/>
<path style="fill:#dfdcd8; stroke:none;" d="M285 180L285 181L290 181L285 180z"/>
<path style="fill:#eda84b; stroke:none;" d="M290 180L290 181L294 181L290 180z"/>
<path style="fill:#010101; stroke:none;" d="M333.981 180.487C327.593 180.861 316.091 184.556 316.203 192.907C316.274 198.208 328.564 203.135 332.985 202.678C342.064 201.74 343.182 179.947 333.981 180.487z"/>
<path style="fill:#dfdcd8; stroke:none;" d="M345 180L344 203L345 203C347.28 195.808 348.382 187.038 345 180M304 182C307.484 189.377 312.187 188.514 316 182L304 182z"/>
<path style="fill:#010101; stroke:none;" d="M306 183L309 188L310 188L314 183L306 183z"/>
<path style="fill:#dfdcd8; stroke:none;" d="M304 202L312 199C308.438 196.679 306.318 198.966 304 202M312 199L313 200L312 199M313 200L314 201L313 200M314 201L315 202L314 201M315 202L318 204L315 202M343 203L340 207L343 203M318.667 204.333L319.333 204.667L318.667 204.333M320 205L321 206L320 205M321 206L321 207L329 209L329 208L321 206M339 207L340 208L339 207M336 208L336 209L339 209L336 208M329 209L329 210L336 210L329 209M283 252L283 260L289 260L289 261L283 261L283 287L289 287L289 261L290 261L292 268L293 268L291 262L296 262L283 252M379 260L385 260C384.896 251.205 379.104 251.205 379 260M430 254L435 253L435 265C441.276 261.846 444.638 262.408 451 265L451 264C445.772 261.071 441.493 260.357 436 263C436 259.792 435.536 247.757 430 254M82 253L82 287L88 287L88 275L87 275L87 286L83 286L83 254C90.9385 254 105.142 252.399 105.677 264C105.869 268.154 102.253 270.289 101.431 274C100.649 277.532 104.173 281.289 106 284L107 284L101 274L105 274L106 273C106.096 269.362 107.391 265.625 106.602 262.001C104.149 250.736 90.6224 253 82 253M211 253L211 287L217 287L217 265L218 265C219.68 268.77 222.224 271.779 224.8 275C226.662 277.328 228.487 279.694 230.4 281.981C242.622 296.59 241.806 263.298 239.682 256.148C237.658 249.335 233.077 256.195 233.005 260.001L233 266L233 275L232 275L224 265L234 277L234 254L239 254L239 286C228.719 283.106 223.995 269.467 216 263L216 286L212 286L212 254L224 264C220.684 258.986 217.4 253.504 211 253z"/>
<path style="fill:#344657; stroke:none;" d="M284 253L284 259L288 259C287.737 255.59 287.321 254.099 284 253z"/>
<path style="fill:#e77f2b; stroke:none;" d="M287 253L288 254L287 253z"/>
<path style="fill:#dfdcd8; stroke:none;" d="M354 255L376 254L376 258L359 258L359 268L374 268L374 267L360 267L360 259L377 259L377 253C371.285 253 357.897 250.54 354 255z"/>
<path style="fill:#e77f2b; stroke:none;" d="M380 253L381 254L380 253z"/>
<path style="fill:#344657; stroke:none;" d="M381 253L380 259L384 259L383 253L381 253z"/>
<path style="fill:#e77f2b; stroke:none;" d="M383 253L384 254L383 253z"/>
<path style="fill:#344657; stroke:none;" d="M431 253L431 286C437.705 284.604 445.559 288.014 450.566 281.891C459.523 270.94 446.464 257.977 435 265C435 260.31 436.237 254.738 431 253z"/>
<path style="fill:#eda84b; stroke:none;" d="M434 253L435 254L434 253z"/>
<path style="fill:#344657; stroke:none;" d="M83 254L83 286L87 286C87.0002 284.331 86.9443 282.644 87.0193 280.976C87.7412 264.907 101.373 285.555 107 286L100 273C106.879 269.561 107.785 260.26 100.945 255.858C96.0639 252.717 88.5365 254 83 254z"/>
<path style="fill:#e77f2b; stroke:none;" d="M98 254L99 255L98 254z"/>
<path style="fill:#dfdcd8; stroke:none;" d="M184 254L184 261L181 261L181 266L175 262L175 263L180 269L181 269L181 266C185.127 270.372 184 276.321 184 282L185 282L185 266L182 266L182 262L185 262L185 255L191 256L184 254z"/>
<path style="fill:#344657; stroke:none;" d="M212 254L212 286L216 286L216 263C222.317 269.863 228.784 283.359 238 286L238 254C231.324 256.216 233.341 271.388 235 277L212 254z"/>
<path style="fill:#eda84b; stroke:none;" d="M234 254L235 255L234 254M238 254L239 255L238 254z"/>
<path style="fill:#dfdcd8; stroke:none;" d="M269 254L269 255L274 255L274 262L279 262L279 266L274 266C274 271.735 271.584 282.415 280 281L281 285C275.915 285.926 272.516 285.989 270 281L269 281C270.924 287.632 276.479 287.656 282 285L281 280L275 281L275 267L280 267L280 261L275 261L275 254L269 254z"/>
<path style="fill:#344657; stroke:none;" d="M355 254L355 286L359 286L359 272L373 272L373 268L359 268L359 258L376 258L376 254L355 254z"/>
<path style="fill:#eda84b; stroke:none;" d="M430 254L430 285L431 285L430 254z"/>
<path style="fill:#344657; stroke:none;" d="M185 255L182 263L182 265C188.639 272.033 180.617 288.609 196 285L195 281C185.177 281.871 188.651 267.952 195 265L195 263L189 262L189 255L185 255z"/>
<path style="fill:#e77f2b; stroke:none;" d="M189 255L189 262L190 262L189 255M238 255L238 285L239 285L238 255z"/>
<path style="fill:#eda84b; stroke:none;" d="M269 255L269 262L270 262L269 255z"/>
<path style="fill:#344657; stroke:none;" d="M270 255L270 262L267 262L267 266L270 266C270 270.842 268.588 278.303 270.603 282.772C272.99 288.063 279.192 285.656 280 281L274 282L274 266L279 266L279 262L274 262L274 255L270 255z"/>
<path style="fill:#eda84b; stroke:none;" d="M354 255L354 285L355 285L354 255M102 256L103 257L102 256M103 257L104 258L103 257z"/>
<path style="fill:#dfdcd8; stroke:none;" d="M190 257L190 260L191 260L190 257z"/>
<path style="fill:#eda84b; stroke:none;" d="M87 258L88 259L87 258z"/>
<path style="fill:#dfdcd8; stroke:none;" d="M97 271L97 270L88 270L88 259C95.9839 259.006 102.283 261.048 98 270C104.903 263.886 98.3486 255.903 90.1481 258.318C86.273 259.459 85.5839 267.579 88.6034 269.972C90.6832 271.621 94.5282 270.998 97 271z"/>
<path style="fill:#eda84b; stroke:none;" d="M218 258L219 259L218 258z"/>
<path style="fill:#010101; stroke:none;" d="M88 259L88 270C102.919 269.998 102.919 259.002 88 259z"/>
<path style="fill:#eda84b; stroke:none;" d="M99 259L100 260L99 259M100 260L101 261L100 260z"/>
<path style="fill:#e77f2b; stroke:none;" d="M105 261L106 262L105 261z"/>
<path style="fill:#dfdcd8; stroke:none;" d="M117 261L117 262L124 262L117 261M137 263L137 264C143.98 261.787 147.704 262.266 154 266C149.418 260.22 143.451 260.278 137 263M167 261L167 262L174 262L167 261M190 261L190 262L195 262L195 266L190 266C195.925 268.251 196.903 261.538 190 261M250 261L250 262L259 263L250 261M266 261L266 262L269 262L266 261M308 265L309 265L314 262L313 266L314 266L315 261L308 265M320 285C317.594 281 314.415 276.965 315.41 272C318.164 258.25 335.49 260.563 338 273C343.261 257.613 306.206 257.291 315.008 278.995C316.091 281.665 317.805 283.276 320 285M379 261L379 287L385 287L385 261L379 261M389 261L389 287L395 285L390 286L390 262L394 265L403 262L403 261L395 263L389 261M404 268L405 268C410.021 262.089 414.92 261.421 422 264C416.07 258.443 407.621 261.383 404 268M458 269L465 267L465 266L458 268L457 265L470 262C464.6 259.739 455.612 261.867 458 269M492 277L492 276C476.392 273.65 482.342 260.473 496 263C483.606 254.533 472.484 275.283 492 277M508 262L508 263L517 262L508 262z"/>
<path style="fill:#eda84b; stroke:none;" d="M101 262L102 263L101 262z"/>
<path style="fill:#dfdcd8; stroke:none;" d="M115 262L116 263L115 262z"/>
<path style="fill:#eda84b; stroke:none;" d="M116 262L117 263L116 262z"/>
<path style="fill:#344657; stroke:none;" d="M131 280C122.965 278.792 118.39 286.138 113 276L132 276C131.704 263.406 114.343 255.167 109.653 270.004C105.192 284.114 122.851 290.936 131 280z"/>
<path style="fill:#eda84b; stroke:none;" d="M124 262L125 263L124 262z"/>
<path style="fill:#dfdcd8; stroke:none;" d="M125 262L126 263L125 262z"/>
<path style="fill:#344657; stroke:none;" d="M137 268C142.876 265.754 147.924 264.787 150 272C144.157 272 125.293 277.161 138.214 284.821C142.538 287.384 150 285.202 155 286C154.572 280.579 155.702 269.688 152.258 265.394C148.422 260.613 136.878 260.659 137 268z"/>
<path style="fill:#e77f2b; stroke:none;" d="M148 262L149 263L148 262z"/>
<path style="fill:#dfdcd8; stroke:none;" d="M158 278L159 278C159.019 271.207 160.306 267.111 166 263C158.422 262.839 158.004 272.454 158 278z"/>
<path style="fill:#eda84b; stroke:none;" d="M166 262L167 263L166 262z"/>
<path style="fill:#344657; stroke:none;" d="M180 280C176.09 279.401 172.845 282.284 169.04 281.508C161.688 280.011 161.878 269.992 168.019 267.047C171.894 265.189 175.931 268.623 180 268C173.525 256.805 157.413 263.501 159.218 276C160.742 286.553 175.211 289.708 180 280z"/>
<path style="fill:#eda84b; stroke:none;" d="M174 262L175 263L174 262z"/>
<path style="fill:#e77f2b; stroke:none;" d="M182 262L183 263L182 262z"/>
<path style="fill:#eda84b; stroke:none;" d="M194 262L195 263L194 262z"/>
<path style="fill:#dfdcd8; stroke:none;" d="M244 267L245 267L249 263C245.837 262.566 244.564 264.014 244 267z"/>
<path style="fill:#eda84b; stroke:none;" d="M249 262L250 263L249 262z"/>
<path style="fill:#344657; stroke:none;" d="M246 268C251.908 265.61 256.898 264.691 259 272C253.147 272 233.881 277.397 247.109 284.821C251.618 287.352 258.843 285.062 264 286C263.541 280.182 264.581 269.748 260.566 265.228C256.61 260.774 245.879 260.744 246 268z"/>
<path style="fill:#eda84b; stroke:none;" d="M257 262L258 263L257 262M266 262L266 266L267 266L266 262z"/>
<path style="fill:#344657; stroke:none;" d="M284 262L284 286L288 286L288 262L284 262M291 262C292.511 266.466 296.954 284.246 302.12 285.079C307.173 285.893 312.867 265.963 314 262C307.022 263.2 305.009 274.062 303 280C299.629 274.077 298.574 263.236 291 262z"/>
<path style="fill:#eda84b; stroke:none;" d="M295 262L296 263L295 262z"/>
<path style="fill:#344657; stroke:none;" d="M337 280C328.449 278.715 325.928 284.871 319 276L338 276C337.713 262.579 319.465 255.583 315.562 271.004C312.039 284.92 329.298 290.335 337 280z"/>
<path style="fill:#eda84b; stroke:none;" d="M330 262L331 263L330 262z"/>
<path style="fill:#344657; stroke:none;" d="M380 262L380 286L384 286L384 262L380 262M390 262L390 286L394 286C394 277.744 392.652 269.207 402 266L402 262L394 265L390 262z"/>
<path style="fill:#e77f2b; stroke:none;" d="M399 262L400 263L399 262z"/>
<path style="fill:#eda84b; stroke:none;" d="M402 262L402 266L403 266L402 262M411 262L412 263L411 262z"/>
<path style="fill:#344657; stroke:none;" d="M425 280L421 279C416.182 284.44 410.883 282.033 408 276L427 275C424.092 261.14 403.37 256.692 403.37 274C403.37 286.025 419.167 290.085 425 280z"/>
<path style="fill:#e77f2b; stroke:none;" d="M418 262L419 263L418 262M439 262L440 263L439 262z"/>
<path style="fill:#eda84b; stroke:none;" d="M462 262L463 263L462 262z"/>
<path style="fill:#344657; stroke:none;" d="M459 268C464.831 265.295 469.934 264.818 472 272C466.063 272 446.772 277.338 460.109 284.821C464.619 287.351 471.843 285.062 477 286C476.541 280.182 477.581 269.748 473.566 265.228C469.55 260.707 458.883 260.67 459 268z"/>
<path style="fill:#eda84b; stroke:none;" d="M470 262L471 263L470 262z"/>
<path style="fill:#dfdcd8; stroke:none;" d="M471 262L472 263L471 262z"/>
<path style="fill:#344657; stroke:none;" d="M481 280L480 281L480 283C484.883 285.735 502.479 288.302 498.377 277.109C496.587 272.224 490.485 273.731 487.466 270.451C482.166 264.694 494.925 267.038 497 268L498 264C493.22 262.258 476.06 261.54 482.043 271.722C484.283 275.534 489.762 274.52 492.534 277.548C498.447 284.006 482.793 280.596 481 280M524 280C515.406 278.708 512.342 285.737 506 276L525 276C524.704 263.406 507.343 255.167 502.653 270.004C498.192 284.114 515.851 290.936 524 280z"/>
<path style="fill:#eda84b; stroke:none;" d="M517 262L518 263L517 262z"/>
<path style="fill:#dfdcd8; stroke:none;" d="M518 262L518 263L521 264L518 262M113 263L114 264L113 263z"/>
<path style="fill:#eda84b; stroke:none;" d="M114 263L115 264L114 263M126 263L127 264L126 263z"/>
<path style="fill:#dfdcd8; stroke:none;" d="M127 263L128 264L127 263z"/>
<path style="fill:#eda84b; stroke:none;" d="M138 263L139 264L138 263z"/>
<path style="fill:#e77f2b; stroke:none;" d="M150 263L151 264L150 263z"/>
<path style="fill:#eda84b; stroke:none;" d="M164 263L165 264L164 263M176 263L177 264L176 263M222 263L223 264L222 263z"/>
<path style="fill:#e77f2b; stroke:none;" d="M247 263L248 264L247 263z"/>
<path style="fill:#eda84b; stroke:none;" d="M259 263L260 264L259 263z"/>
<path style="fill:#dfdcd8; stroke:none;" d="M260 263L262 267L263 267L260 263z"/>
<path style="fill:#e77f2b; stroke:none;" d="M291 263L292 264L291 263z"/>
<path style="fill:#dfdcd8; stroke:none;" d="M296.333 263.667L296.667 264.333L296.333 263.667z"/>
<path style="fill:#e77f2b; stroke:none;" d="M309 263L310 264L309 263M332 263L333 264L332 263z"/>
<path style="fill:#eda84b; stroke:none;" d="M472 263L475 266L472 263z"/>
<path style="fill:#dfdcd8; stroke:none;" d="M473 263L474 264L473 263z"/>
<path style="fill:#eda84b; stroke:none;" d="M496 263L497 264L496 263z"/>
<path style="fill:#dfdcd8; stroke:none;" d="M497 263L498 264L497 263M506 263L507 264L506 263z"/>
<path style="fill:#eda84b; stroke:none;" d="M507 263L508 264L507 263M519 263L520 264L519 263z"/>
<path style="fill:#dfdcd8; stroke:none;" d="M112 264L113 265L112 264M128 264L129 265L128 264M135 264L135 267L136 267L135 264z"/>
<path style="fill:#eda84b; stroke:none;" d="M136 264L137 265L136 264M223 264L224 265L223 264z"/>
<path style="fill:#e77f2b; stroke:none;" d="M245 264L246 265L245 264M260 264L261 265L260 264M319 264L320 265L319 264z"/>
<path style="fill:#eda84b; stroke:none;" d="M395 264L396 265L395 264M407 264L408 265L407 264M422 264L424 266L422 264z"/>
<path style="fill:#dfdcd8; stroke:none;" d="M423 264L424 265L423 264z"/>
<path style="fill:#eda84b; stroke:none;" d="M449 264L450 265L449 264z"/>
<path style="fill:#e77f2b; stroke:none;" d="M458 264L459 265L458 264z"/>
<path style="fill:#dfdcd8; stroke:none;" d="M474 264L475 265L474 264M498 264L499 265L498 264M505 264L506 265L505 264M521 264L522 265L521 264M111 265L112 266L111 265z"/>
<path style="fill:#eda84b; stroke:none;" d="M119 265L119 266L122 266L119 265z"/>
<path style="fill:#dfdcd8; stroke:none;" d="M129 265L130 266L129 265z"/>
<path style="fill:#eda84b; stroke:none;" d="M143 265L144 266L143 265z"/>
<path style="fill:#dfdcd8; stroke:none;" d="M144 265L145 266L144 265z"/>
<path style="fill:#eda84b; stroke:none;" d="M145 265L146 266L145 265z"/>
<path style="fill:#e77f2b; stroke:none;" d="M182 265L183 266L182 265z"/>
<path style="fill:#eda84b; stroke:none;" d="M194 265L195 266L194 265M244 265L245 266L244 265z"/>
<path style="fill:#e77f2b; stroke:none;" d="M251 265L252 266L251 265z"/>
<path style="fill:#eda84b; stroke:none;" d="M252 265L253 266L252 265z"/>
<path style="fill:#dfdcd8; stroke:none;" d="M253 265L254 266L253 265z"/>
<path style="fill:#eda84b; stroke:none;" d="M254 265L255 266L254 265M261 265L262 266L261 265z"/>
<path style="fill:#dfdcd8; stroke:none;" d="M297.333 265.667L297.667 266.333L297.333 265.667z"/>
<path style="fill:#eda84b; stroke:none;" d="M308 265L309 266L308 265z"/>
<path style="fill:#e77f2b; stroke:none;" d="M325 265L326 266L325 265z"/>
<path style="fill:#eda84b; stroke:none;" d="M326.667 265.333L327.333 265.667L326.667 265.333M406 265L407 266L406 265M414.667 265.333L415.333 265.667L414.667 265.333z"/>
<path style="fill:#e77f2b; stroke:none;" d="M416 265L417 266L416 265z"/>
<path style="fill:#dfdcd8; stroke:none;" d="M424.333 265.667L424.667 266.333L424.333 265.667z"/>
<path style="fill:#eda84b; stroke:none;" d="M450 265L451 266L450 265z"/>
<path style="fill:#e77f2b; stroke:none;" d="M457 265L458 266L457 265M464 265L465 266L464 265z"/>
<path style="fill:#eda84b; stroke:none;" d="M465 265L465 266L468 266L465 265M488 265L489 266L488 265z"/>
<path style="fill:#dfdcd8; stroke:none;" d="M489 265L490 266L489 265z"/>
<path style="fill:#eda84b; stroke:none;" d="M490.667 265.333L491.333 265.667L490.667 265.333M498 265L499 266L498 265z"/>
<path style="fill:#dfdcd8; stroke:none;" d="M504 265L505 266L504 265z"/>
<path style="fill:#e77f2b; stroke:none;" d="M512 265L513 266L512 265z"/>
<path style="fill:#eda84b; stroke:none;" d="M513.667 265.333L514.333 265.667L513.667 265.333z"/>
<path style="fill:#dfdcd8; stroke:none;" d="M522 265L523 266L522 265z"/>
<path style="fill:#e77f2b; stroke:none;" d="M101 266L102 267L101 266z"/>
<path style="fill:#dfdcd8; stroke:none;" d="M110 266L111 267L110 266M114 270L120 267L114 270z"/>
<path style="fill:#010101; stroke:none;" d="M114 272L127 272C123.749 265.415 117.284 265.431 114 272z"/>
<path style="fill:#dfdcd8; stroke:none;" d="M122 266L122 267L127 270L122 266z"/>
<path style="fill:#e77f2b; stroke:none;" d="M124 266L125 267L124 266z"/>
<path style="fill:#dfdcd8; stroke:none;" d="M130 266L131 267L130 266z"/>
<path style="fill:#eda84b; stroke:none;" d="M140 266L141 267L140 266z"/>
<path style="fill:#dfdcd8; stroke:none;" d="M141.667 266.333L142.333 266.667L141.667 266.333M146.667 266.333L147.333 266.667L146.667 266.333z"/>
<path style="fill:#eda84b; stroke:none;" d="M153 266L154 267L153 266M167 266L168 267L167 266z"/>
<path style="fill:#dfdcd8; stroke:none;" d="M168 266L168 267L173 267L168 266z"/>
<path style="fill:#eda84b; stroke:none;" d="M173 266L174 267L173 266M179 266L180 267L179 266M219 266L220 267L219 266z"/>
<path style="fill:#dfdcd8; stroke:none;" d="M230 266L231 267L230 266M249 266L249 267L252 267L249 266M255.667 266.333L256.333 266.667L255.667 266.333M266 266L266 267L269 267L266 266z"/>
<path style="fill:#eda84b; stroke:none;" d="M269 266L269 281L270 281L269 266z"/>
<path style="fill:#dfdcd8; stroke:none;" d="M307 266L306 270L307 270L307 266z"/>
<path style="fill:#eda84b; stroke:none;" d="M312 266L313 267L312 266M317 266L318 267L317 266z"/>
<path style="fill:#dfdcd8; stroke:none;" d="M320 271L321 271L326 267C322.712 266.325 321.415 268.181 320 271z"/>
<path style="fill:#010101; stroke:none;" d="M320 272L333 272C330.326 264.664 323.411 265.867 320 272z"/>
<path style="fill:#dfdcd8; stroke:none;" d="M328.667 266.333L329.333 266.667L328.667 266.333z"/>
<path style="fill:#eda84b; stroke:none;" d="M330 266L331 267L330 266M399 266L400 267L399 266z"/>
<path style="fill:#dfdcd8; stroke:none;" d="M400 266L400 267L403 267L400 266M408 272L409 272L414 267C410.395 266.25 409.099 268.868 408 272z"/>
<path style="fill:#010101; stroke:none;" d="M409 272L421 272C418.883 264.965 411.4 265.415 409 272z"/>
<path style="fill:#dfdcd8; stroke:none;" d="M416 266L416 267L419 267L416 266M441 282L441 281C435.978 278.467 433.529 269.444 441.015 267.752C450.046 265.71 447.074 277.77 443 281C450.77 281.17 450.43 267.637 442.985 266.377C433.504 264.771 432.613 279.567 441 282M451 266L452 267L451 266z"/>
<path style="fill:#e77f2b; stroke:none;" d="M461 266L462 267L461 266z"/>
<path style="fill:#dfdcd8; stroke:none;" d="M468.667 266.333L469.333 266.667L468.667 266.333M475 266L476 267L475 266z"/>
<path style="fill:#e77f2b; stroke:none;" d="M481 266L482 267L481 266z"/>
<path style="fill:#dfdcd8; stroke:none;" d="M486.667 266.333L487.333 266.667L486.667 266.333M492 266L492 267L496 268L496 267L492 266z"/>
<path style="fill:#eda84b; stroke:none;" d="M494 266L495 267L494 266z"/>
<path style="fill:#dfdcd8; stroke:none;" d="M498 266L499 267L498 266M503 266L504 267L503 266M507 270L513 267L507 270z"/>
<path style="fill:#010101; stroke:none;" d="M507 272L520 272C516.749 265.415 510.284 265.431 507 272z"/>
<path style="fill:#dfdcd8; stroke:none;" d="M515 266L515 267L520 270L515 266z"/>
<path style="fill:#eda84b; stroke:none;" d="M517 266L518 267L517 266z"/>
<path style="fill:#dfdcd8; stroke:none;" d="M523 266L524 269L525 269L523 266z"/>
<path style="fill:#e77f2b; stroke:none;" d="M105 267L106 268L105 267z"/>
<path style="fill:#eda84b; stroke:none;" d="M110 267L111 268L110 267M115 267L116 268L115 267M125 267L126 268L125 267M130 267L131 268L130 267z"/>
<path style="fill:#dfdcd8; stroke:none;" d="M136 267L140 268L140 267L136 267z"/>
<path style="fill:#eda84b; stroke:none;" d="M138 267L139 268L138 267z"/>
<path style="fill:#dfdcd8; stroke:none;" d="M148 267L149 268L148 267M154 267L154 270L155 270L154 267z"/>
<path style="fill:#e77f2b; stroke:none;" d="M160 267L161 268L160 267z"/>
<path style="fill:#dfdcd8; stroke:none;" d="M166 267L167 268L166 267M174 267L175 268L174 267z"/>
<path style="fill:#e77f2b; stroke:none;" d="M189 267L189 280L190 280L189 267z"/>
<path style="fill:#eda84b; stroke:none;" d="M245 267L246 268L245 267z"/>
<path style="fill:#dfdcd8; stroke:none;" d="M247.667 267.333L248.333 267.667L247.667 267.333M257 267L257 272L257 267z"/>
<path style="fill:#e77f2b; stroke:none;" d="M262 267L263 268L262 267z"/>
<path style="fill:#eda84b; stroke:none;" d="M297 267L298 268L297 267z"/>
<path style="fill:#dfdcd8; stroke:none;" d="M312 267L311 271L312 271L312 267z"/>
<path style="fill:#e77f2b; stroke:none;" d="M321 267L322 268L321 267z"/>
<path style="fill:#dfdcd8; stroke:none;" d="M331 267L332 268L331 267z"/>
<path style="fill:#eda84b; stroke:none;" d="M397 267L398 268L397 267z"/>
<path style="fill:#dfdcd8; stroke:none;" d="M398 267L399 268L398 267M419 267L420 268L419 267M425 267L426 268L425 267M427 267L428 268L427 267z"/>
<path style="fill:#eda84b; stroke:none;" d="M437 267L438 268L437 267z"/>
<path style="fill:#010101; stroke:none;" d="M439.148 268.032C433.201 271.428 436.331 284.248 443.891 280.727C451.196 277.325 446.935 263.586 439.148 268.032z"/>
<path style="fill:#e77f2b; stroke:none;" d="M446 267L447 268L446 267z"/>
<path style="fill:#dfdcd8; stroke:none;" d="M452 267L453 273L454 273L452 267z"/>
<path style="fill:#e77f2b; stroke:none;" d="M458 267L459 268L458 267z"/>
<path style="fill:#dfdcd8; stroke:none;" d="M470 267L469 271L469 272C472.345 271.28 472.036 269.332 470 267z"/>
<path style="fill:#eda84b; stroke:none;" d="M475 267L476 268L475 267z"/>
<path style="fill:#dfdcd8; stroke:none;" d="M485 267L485 270L486 270L485 267M497 267L496 269L498 269L497 267z"/>
<path style="fill:#eda84b; stroke:none;" d="M503 267L504 268L503 267M508 267L509 268L508 267M523 267L524 268L523 267z"/>
<path style="fill:#e77f2b; stroke:none;" d="M100 268L101 269L100 268z"/>
<path style="fill:#dfdcd8; stroke:none;" d="M109 268L110 269L109 268z"/>
<path style="fill:#e77f2b; stroke:none;" d="M114 268L115 269L114 268z"/>
<path style="fill:#dfdcd8; stroke:none;" d="M120 268L121 269L120 268z"/>
<path style="fill:#eda84b; stroke:none;" d="M126 268L127 269L126 268z"/>
<path style="fill:#dfdcd8; stroke:none;" d="M131 268L132 269L131 268M141 268L142 269L141 268M149 268L148 272L149 268M165 268L166 269L165 268M175 268L179 270L179 269L175 268z"/>
<path style="fill:#eda84b; stroke:none;" d="M179 268L180 269L179 268M226 268L227 269L226 268z"/>
<path style="fill:#dfdcd8; stroke:none;" d="M229 268L230 269L229 268M242 268L243 269L242 268M245.667 268.333L246.333 268.667L245.667 268.333z"/>
<path style="fill:#eda84b; stroke:none;" d="M258 268L259 269L258 268z"/>
<path style="fill:#dfdcd8; stroke:none;" d="M263 268C263 273.029 265.415 283.053 261 286L261 287L265 287L263 268z"/>
<path style="fill:#eda84b; stroke:none;" d="M293 268L294 269L293 268z"/>
<path style="fill:#dfdcd8; stroke:none;" d="M298 268L299 272L300 272L298 268z"/>
<path style="fill:#eda84b; stroke:none;" d="M307 268L308 269L307 268z"/>
<path style="fill:#e77f2b; stroke:none;" d="M311 268L312 269L311 268z"/>
<path style="fill:#dfdcd8; stroke:none;" d="M332 268L333 272L334 272L332 268z"/>
<path style="fill:#eda84b; stroke:none;" d="M373 268L373 271L374 271L373 268z"/>
<path style="fill:#dfdcd8; stroke:none;" d="M396 268L397 269L396 268z"/>
<path style="fill:#eda84b; stroke:none;" d="M404 268L405 269L404 268z"/>
<path style="fill:#dfdcd8; stroke:none;" d="M420 268L421 269L420 268z"/>
<path style="fill:#eda84b; stroke:none;" d="M425 268L426 269L425 268M436 268L437 269L436 268z"/>
<path style="fill:#e77f2b; stroke:none;" d="M471 268L472 269L471 268z"/>
<path style="fill:#dfdcd8; stroke:none;" d="M476 268C476 272.934 478.254 283.067 474 286L474 287L478 287L476 268M499 268L500 269L499 268M502 268L503 269L502 268z"/>
<path style="fill:#eda84b; stroke:none;" d="M519 268L520 269L519 268M99 269L100 270L99 269M109 269L110 270L109 269M131 269L132 270L131 269z"/>
<path style="fill:#e77f2b; stroke:none;" d="M159 269L160 270L159 269z"/>
<path style="fill:#dfdcd8; stroke:none;" d="M164 269L164 279L165 279L164 269M293.333 269.667L293.667 270.333L293.333 269.667M323 269L324 270L323 269z"/>
<path style="fill:#e77f2b; stroke:none;" d="M333 269L334 270L333 269M337 269L338 270L337 269z"/>
<path style="fill:#dfdcd8; stroke:none;" d="M395.333 269.667L395.667 270.333L395.333 269.667M403.333 269.667L403.667 270.333L403.333 269.667z"/>
<path style="fill:#eda84b; stroke:none;" d="M408 269L409 270L408 269z"/>
<path style="fill:#dfdcd8; stroke:none;" d="M421 269L421 272L422 272L421 269M426.333 269.667L426.667 270.333L426.333 269.667z"/>
<path style="fill:#eda84b; stroke:none;" d="M435 269L436 270L435 269z"/>
<path style="fill:#e77f2b; stroke:none;" d="M452 269L453 270L452 269z"/>
<path style="fill:#dfdcd8; stroke:none;" d="M478.333 269.667L478.667 270.333L478.333 269.667z"/>
<path style="fill:#eda84b; stroke:none;" d="M502 269L503 270L502 269M524 269L525 270L524 269M87 270L88 271L87 270M97 270L98 271L97 270z"/>
<path style="fill:#dfdcd8; stroke:none;" d="M108 270L108 278L109 278L108 270z"/>
<path style="fill:#eda84b; stroke:none;" d="M113 270L114 271L113 270z"/>
<path style="fill:#dfdcd8; stroke:none;" d="M127.333 270.667L127.667 271.333L127.333 270.667M132 270L132 276L113 276L113 277L133 277L132 270M143 270L143 271L146 271L143 270z"/>
<path style="fill:#eda84b; stroke:none;" d="M154 270L154 281L155 281L154 270z"/>
<path style="fill:#e77f2b; stroke:none;" d="M163 270L164 271L163 270z"/>
<path style="fill:#dfdcd8; stroke:none;" d="M251 270L251 271L255 271L251 270z"/>
<path style="fill:#e77f2b; stroke:none;" d="M298 270L299 271L298 270z"/>
<path style="fill:#eda84b; stroke:none;" d="M306 270L307 271L306 270M315 270L316 271L315 270M448 270L449 271L448 270z"/>
<path style="fill:#dfdcd8; stroke:none;" d="M458 270L459 271L458 270M464 270L464 271L468 271L464 270M486 270L486 271L491 272L491 271L486 270M501 270L501 278L502 278L501 270z"/>
<path style="fill:#e77f2b; stroke:none;" d="M506 270L507 271L506 270z"/>
<path style="fill:#dfdcd8; stroke:none;" d="M520.333 270.667L520.667 271.333L520.333 270.667M525 270L525 276C520.402 276 508.136 273.698 507 279L508 279L526 277L525 270M113 271L114 272L113 271M115 271L116 272L115 271M139.667 271.333L140.333 271.667L139.667 271.333z"/>
<path style="fill:#eda84b; stroke:none;" d="M141.667 271.333L142.333 271.667L141.667 271.333z"/>
<path style="fill:#e77f2b; stroke:none;" d="M143 271L143 272L146 272L143 271z"/>
<path style="fill:#eda84b; stroke:none;" d="M146.667 271.333L147.333 271.667L146.667 271.333M223 271L224 272L223 271z"/>
<path style="fill:#dfdcd8; stroke:none;" d="M248.667 271.333L249.333 271.667L248.667 271.333z"/>
<path style="fill:#eda84b; stroke:none;" d="M250 271L251 272L250 271z"/>
<path style="fill:#e77f2b; stroke:none;" d="M251 271L251 272L255 272L251 271z"/>
<path style="fill:#eda84b; stroke:none;" d="M255.667 271.333L256.333 271.667L255.667 271.333z"/>
<path style="fill:#dfdcd8; stroke:none;" d="M294.333 271.667L294.667 272.333L294.333 271.667M305.333 271.667L305.667 272.333L305.333 271.667z"/>
<path style="fill:#eda84b; stroke:none;" d="M310 271L311 272L310 271M319 271L320 272L319 271z"/>
<path style="fill:#dfdcd8; stroke:none;" d="M373 271L359 272L359 286L354 285L360 287L360 273L373 271z"/>
<path style="fill:#eda84b; stroke:none;" d="M394 271L395 272L394 271M403 271L404 272L403 271z"/>
<path style="fill:#e77f2b; stroke:none;" d="M422 271L423 272L422 271z"/>
<path style="fill:#eda84b; stroke:none;" d="M426 271L427 272L426 271z"/>
<path style="fill:#dfdcd8; stroke:none;" d="M461.667 271.333L462.333 271.667L461.667 271.333z"/>
<path style="fill:#eda84b; stroke:none;" d="M463 271L464 272L463 271z"/>
<path style="fill:#e77f2b; stroke:none;" d="M464 271L464 272L468 272L464 271z"/>
<path style="fill:#eda84b; stroke:none;" d="M468 271L469 272L468 271z"/>
<path style="fill:#e77f2b; stroke:none;" d="M487 271L488 272L487 271z"/>
<path style="fill:#dfdcd8; stroke:none;" d="M506 271L507 272L506 271z"/>
<path style="fill:#010101; stroke:none;" d="M104 272L105 273L104 272z"/>
<path style="fill:#dfdcd8; stroke:none;" d="M137 272L138 273L137 272z"/>
<path style="fill:#eda84b; stroke:none;" d="M138 272L139 273L138 272z"/>
<path style="fill:#dfdcd8; stroke:none;" d="M190 272L190 275L191 275L190 272M246 272L247 273L246 272z"/>
<path style="fill:#eda84b; stroke:none;" d="M247 272L248 273L247 272M299 272L300 273L299 272z"/>
<path style="fill:#dfdcd8; stroke:none;" d="M310 272L309 276L310 276L310 272M394 272L395 273L394 272z"/>
<path style="fill:#e77f2b; stroke:none;" d="M426 272L427 273L426 272z"/>
<path style="fill:#dfdcd8; stroke:none;" d="M427 272L427 276C421.909 276 411.514 273.978 408 278C412.514 276.925 429.393 279.303 427 272M459 272L460 273L459 272z"/>
<path style="fill:#e77f2b; stroke:none;" d="M460 272L461 273L460 272M491 272L492 273L491 272z"/>
<path style="fill:#dfdcd8; stroke:none;" d="M492 272L492 273L495 273L492 272z"/>
<path style="fill:#e77f2b; stroke:none;" d="M100 273L101 274L100 273z"/>
<path style="fill:#dfdcd8; stroke:none;" d="M136 273L137 274L136 273z"/>
<path style="fill:#eda84b; stroke:none;" d="M230 273L231 274L230 273z"/>
<path style="fill:#dfdcd8; stroke:none;" d="M244 273L244 275L246 273L244 273z"/>
<path style="fill:#eda84b; stroke:none;" d="M295 273L296 274L295 273z"/>
<path style="fill:#dfdcd8; stroke:none;" d="M300 273L301 278L302 278L300 273z"/>
<path style="fill:#eda84b; stroke:none;" d="M305 273L306 274L305 273M309 273L310 274L309 273M338.333 273.667L338.667 274.333L338.333 273.667M394 273L394 285L395 285L394 273z"/>
<path style="fill:#dfdcd8; stroke:none;" d="M402 273L402 276L403 276L402 273z"/>
<path style="fill:#eda84b; stroke:none;" d="M453.333 273.667L453.667 274.333L453.333 273.667z"/>
<path style="fill:#dfdcd8; stroke:none;" d="M457 273L458 274L457 273z"/>
<path style="fill:#eda84b; stroke:none;" d="M458 273L459 274L458 273z"/>
<path style="fill:#dfdcd8; stroke:none;" d="M495.667 273.333L496.333 273.667L495.667 273.333z"/>
<path style="fill:#eda84b; stroke:none;" d="M88 274L88 275L94 275L88 274z"/>
<path style="fill:#e77f2b; stroke:none;" d="M94 274L95 275L94 274z"/>
<path style="fill:#dfdcd8; stroke:none;" d="M135 274L136 275L135 274z"/>
<path style="fill:#e77f2b; stroke:none;" d="M143 274L144 275L143 274z"/>
<path style="fill:#eda84b; stroke:none;" d="M144 274L144 275L147 275L144 274M252 274L252 275L255 275L252 274z"/>
<path style="fill:#e77f2b; stroke:none;" d="M255 274L256 275L255 274z"/>
<path style="fill:#dfdcd8; stroke:none;" d="M295.333 274.667L295.667 275.333L295.333 274.667M304.333 274.667L304.667 275.333L304.333 274.667z"/>
<path style="fill:#eda84b; stroke:none;" d="M457 274L458 275L457 274M465 274L465 275L468 275L465 274z"/>
<path style="fill:#e77f2b; stroke:none;" d="M468 274L469 275L468 274M485 274L486 275L485 274z"/>
<path style="fill:#dfdcd8; stroke:none;" d="M497 274L498 275L497 274M94 275L96 277L96 275L94 275z"/>
<path style="fill:#e77f2b; stroke:none;" d="M100 275L101 276L100 275z"/>
<path style="fill:#dfdcd8; stroke:none;" d="M134 275L133 280L134 280L134 275z"/>
<path style="fill:#eda84b; stroke:none;" d="M140 275L141 276L140 275z"/>
<path style="fill:#dfdcd8; stroke:none;" d="M139 278L149 276L146 281L146 282L150 275C145.863 275.003 141.582 274.346 139 278M243 275L244 276L243 275M248 276L248 277L252 276L248 276z"/>
<path style="fill:#010101; stroke:none;" d="M258 276C256.72 275.866 255.257 275.567 253.96 275.614C242.892 276.017 255.994 287.823 258 276z"/>
<path style="fill:#dfdcd8; stroke:none;" d="M254 275L254 276L258 276L258 280L259 280L259 275L254 275z"/>
<path style="fill:#eda84b; stroke:none;" d="M300 275L301 276L300 275z"/>
<path style="fill:#dfdcd8; stroke:none;" d="M338 275C333.327 276.708 321.19 273.446 320 279L321 279L338 275z"/>
<path style="fill:#eda84b; stroke:none;" d="M426 275L427 276L426 275z"/>
<path style="fill:#dfdcd8; stroke:none;" d="M453 275L453 279L454 279L453 275M456 275L457 276L456 275M463 282C462.099 278.816 462.114 277.705 465 276C460.284 275.007 460.388 279.335 463 282z"/>
<path style="fill:#010101; stroke:none;" d="M471 276C469.72 275.79 468.277 275.4 466.96 275.475C455.805 276.116 469.007 287.585 471 276z"/>
<path style="fill:#dfdcd8; stroke:none;" d="M468 275L468 276L471 279L472 279L472 275L468 275z"/>
<path style="fill:#eda84b; stroke:none;" d="M488 275L489 276L488 275z"/>
<path style="fill:#dfdcd8; stroke:none;" d="M498 275L499 276L498 275z"/>
<path style="fill:#010101; stroke:none;" d="M149 276C132.774 276.057 147.189 287.091 149 276z"/>
<path style="fill:#e77f2b; stroke:none;" d="M150.333 276.667L150.667 277.333L150.333 276.667z"/>
<path style="fill:#eda84b; stroke:none;" d="M227 276L228 277L227 276z"/>
<path style="fill:#e77f2b; stroke:none;" d="M234 276L235 277L234 276M243 276L244 277L243 276z"/>
<path style="fill:#dfdcd8; stroke:none;" d="M296.333 276.667L296.667 277.333L296.333 276.667M303 276L302 280L303 280L303 276M308.333 276.667L308.667 277.333L308.333 276.667M310 276L311 277L310 276z"/>
<path style="fill:#eda84b; stroke:none;" d="M319 276L320 277L319 276M403 276L404 277L403 276z"/>
<path style="fill:#dfdcd8; stroke:none;" d="M455 276L456 283L457 283L455 276M482 276L484 278L482 276z"/>
<path style="fill:#e77f2b; stroke:none;" d="M492 276L493 277L492 276z"/>
<path style="fill:#dfdcd8; stroke:none;" d="M499 276L499 282L500 282L499 276z"/>
<path style="fill:#eda84b; stroke:none;" d="M506 276L507 277L506 276z"/>
<path style="fill:#dfdcd8; stroke:none;" d="M96 277L97 278L96 277z"/>
<path style="fill:#e77f2b; stroke:none;" d="M113 277L114 278L113 277z"/>
<path style="fill:#eda84b; stroke:none;" d="M134 277L135 278L134 277z"/>
<path style="fill:#e77f2b; stroke:none;" d="M163 277L164 278L163 277z"/>
<path style="fill:#dfdcd8; stroke:none;" d="M242 277L242 281L243 281L242 277z"/>
<path style="fill:#eda84b; stroke:none;" d="M247 277L248 278L247 277M315 277L316 278L315 277z"/>
<path style="fill:#dfdcd8; stroke:none;" d="M403 277L404 281L405 281L403 277z"/>
<path style="fill:#eda84b; stroke:none;" d="M448 277L449 278L448 277z"/>
<path style="fill:#dfdcd8; stroke:none;" d="M493 277L494 278L493 277z"/>
<path style="fill:#eda84b; stroke:none;" d="M97 278L98 279L97 278z"/>
<path style="fill:#e77f2b; stroke:none;" d="M102 278L103 279L102 278z"/>
<path style="fill:#eda84b; stroke:none;" d="M109 278L110 279L109 278z"/>
<path style="fill:#dfdcd8; stroke:none;" d="M114 278L118 282L114 278M126 280L130 279L126 280z"/>
<path style="fill:#eda84b; stroke:none;" d="M138.333 278.667L138.667 279.333L138.333 278.667z"/>
<path style="fill:#e77f2b; stroke:none;" d="M159 278L160 279L159 278z"/>
<path style="fill:#dfdcd8; stroke:none;" d="M175 280L181 280C178.688 278.255 177.021 277.717 175 280M247.333 278.667L247.667 279.333L247.333 278.667z"/>
<path style="fill:#eda84b; stroke:none;" d="M297 278L298 279L297 278M303 278L304 279L303 278M307 278L308 279L307 278z"/>
<path style="fill:#dfdcd8; stroke:none;" d="M332 280L336 279L332 280z"/>
<path style="fill:#eda84b; stroke:none;" d="M408 278L409 279L408 278z"/>
<path style="fill:#dfdcd8; stroke:none;" d="M421 278L421 279L425 279L424 283C426.183 279.801 424.413 278.569 421 278M494 278L494 281L495 281L494 278z"/>
<path style="fill:#eda84b; stroke:none;" d="M502 278L503 279L502 278z"/>
<path style="fill:#dfdcd8; stroke:none;" d="M519 280L523 279L519 280M97 279L98 280L97 279M109 279L110 280L109 279z"/>
<path style="fill:#e77f2b; stroke:none;" d="M114 279L115 280L114 279z"/>
<path style="fill:#eda84b; stroke:none;" d="M130 279L131 280L130 279z"/>
<path style="fill:#dfdcd8; stroke:none;" d="M131.333 279.667L131.667 280.333L131.333 279.667M159 279L161 282L159 279M165 279L167 281L165 279z"/>
<path style="fill:#e77f2b; stroke:none;" d="M179 279L180 280L179 279z"/>
<path style="fill:#dfdcd8; stroke:none;" d="M297 279L298 283L299 283L297 279M307.333 279.667L307.667 280.333L307.333 279.667M321 279L322 280L321 279z"/>
<path style="fill:#eda84b; stroke:none;" d="M336 279L337 280L336 279z"/>
<path style="fill:#dfdcd8; stroke:none;" d="M337.333 279.667L337.667 280.333L337.333 279.667z"/>
<path style="fill:#eda84b; stroke:none;" d="M404 279L405 280L404 279z"/>
<path style="fill:#dfdcd8; stroke:none;" d="M409 279L410 280L409 279M414 279L415 280L414 279M420 279L418 282L420 279z"/>
<path style="fill:#e77f2b; stroke:none;" d="M424 279L425 280L424 279z"/>
<path style="fill:#dfdcd8; stroke:none;" d="M441 279L442 280L441 279M452.333 279.667L452.667 280.333L452.333 279.667z"/>
<path style="fill:#eda84b; stroke:none;" d="M471 279L472 280L471 279z"/>
<path style="fill:#dfdcd8; stroke:none;" d="M480 281L483 280L480 281M502 279L503 280L502 279M508 279L511 282L508 279z"/>
<path style="fill:#eda84b; stroke:none;" d="M523 279L524 280L523 279z"/>
<path style="fill:#dfdcd8; stroke:none;" d="M524.333 279.667L524.667 280.333L524.333 279.667M98 280L100 283L98 280z"/>
<path style="fill:#eda84b; stroke:none;" d="M110 280L111 281L110 280M115 280L116 281L115 280z"/>
<path style="fill:#dfdcd8; stroke:none;" d="M125 280L126 281L125 280z"/>
<path style="fill:#eda84b; stroke:none;" d="M134 280L135 281L134 280z"/>
<path style="fill:#dfdcd8; stroke:none;" d="M139 280L140 281L139 280z"/>
<path style="fill:#e77f2b; stroke:none;" d="M160 280L161 281L160 280M165 280L166 281L165 280z"/>
<path style="fill:#dfdcd8; stroke:none;" d="M174 280L175 281L174 280z"/>
<path style="fill:#eda84b; stroke:none;" d="M180 280L181 281L180 280z"/>
<path style="fill:#dfdcd8; stroke:none;" d="M194 280L194 281L195 286C197.526 283.76 196.62 281.693 194 280M248 280L250 282L248 280M255 282L258 281L255 282z"/>
<path style="fill:#e77f2b; stroke:none;" d="M298 280L299 281L298 280z"/>
<path style="fill:#dfdcd8; stroke:none;" d="M322 280L323 281L322 280M331 280L332 281L331 280M410 280L411 281L410 280z"/>
<path style="fill:#eda84b; stroke:none;" d="M420 280L421 281L420 280M446 280L447 281L446 280M460 280L461 281L460 280z"/>
<path style="fill:#dfdcd8; stroke:none;" d="M467 281L467 282L471 281L467 281M483 280L483 281L487 282L487 281L483 280z"/>
<path style="fill:#eda84b; stroke:none;" d="M503 280L504 281L503 280M508 280L509 281L508 280z"/>
<path style="fill:#dfdcd8; stroke:none;" d="M518 280L519 281L518 280z"/>
<path style="fill:#eda84b; stroke:none;" d="M99 281L100 282L99 281M104 281L105 282L104 281z"/>
<path style="fill:#dfdcd8; stroke:none;" d="M110 281L111 282L110 281z"/>
<path style="fill:#e77f2b; stroke:none;" d="M116 281L117 282L116 281z"/>
<path style="fill:#dfdcd8; stroke:none;" d="M123.667 281.333L124.333 281.667L123.667 281.333M130 281L131 282L130 281M134 281L136 284L134 281M140 281L141 282L140 281z"/>
<path style="fill:#e77f2b; stroke:none;" d="M154 281L155 282L154 281z"/>
<path style="fill:#dfdcd8; stroke:none;" d="M155 281L156 282L155 281M167.667 281.333L168.333 281.667L167.667 281.333M172.667 281.333L173.333 281.667L172.667 281.333M180 281L181 282L180 281z"/>
<path style="fill:#e77f2b; stroke:none;" d="M185 281L186 282L185 281z"/>
<path style="fill:#dfdcd8; stroke:none;" d="M190 281L190 282L194 282L190 281z"/>
<path style="fill:#eda84b; stroke:none;" d="M195 281L196 282L195 281M231 281L232 282L231 281M243 281L244 282L243 281M248 281L249 282L248 281M256 281L257 282L256 281M263 281L264 282L263 281M274 281L275 282L274 281M278 281L279 282L278 281z"/>
<path style="fill:#dfdcd8; stroke:none;" d="M306.333 281.667L306.667 282.333L306.333 281.667z"/>
<path style="fill:#e77f2b; stroke:none;" d="M317 281L318 282L317 281z"/>
<path style="fill:#dfdcd8; stroke:none;" d="M323.667 281.333L324.333 281.667L323.667 281.333M329.667 281.333L330.333 281.667L329.667 281.333M336 281L333 284L333 285L336 281M405 281L409 285L409 284L405 281M411.667 281.333L412.333 281.667L411.667 281.333z"/>
<path style="fill:#e77f2b; stroke:none;" d="M419 281L420 282L419 281M424 281L425 282L424 281z"/>
<path style="fill:#dfdcd8; stroke:none;" d="M451 281L448 284L448 285L451 281z"/>
<path style="fill:#eda84b; stroke:none;" d="M456 281L457 282L456 281M461 281L462 282L461 281M469 281L470 282L469 281z"/>
<path style="fill:#dfdcd8; stroke:none;" d="M479 281L481 284L479 281z"/>
<path style="fill:#e77f2b; stroke:none;" d="M484 281L485 282L484 281z"/>
<path style="fill:#dfdcd8; stroke:none;" d="M492.667 281.333L493.333 281.667L492.667 281.333M503 281L504 282L503 281z"/>
<path style="fill:#e77f2b; stroke:none;" d="M509 281L510 282L509 281z"/>
<path style="fill:#dfdcd8; stroke:none;" d="M516.667 281.333L517.333 281.667L516.667 281.333M523 281L520 284L520 285L523 281M111 282L112 283L111 282z"/>
<path style="fill:#e77f2b; stroke:none;" d="M118 282L119 283L118 282z"/>
<path style="fill:#dfdcd8; stroke:none;" d="M119 282L119 283L122 283L119 282z"/>
<path style="fill:#eda84b; stroke:none;" d="M122 282L123 283L122 282z"/>
<path style="fill:#dfdcd8; stroke:none;" d="M129 282L128 284L130 284L129 282z"/>
<path style="fill:#e77f2b; stroke:none;" d="M135 282L136 283L135 282z"/>
<path style="fill:#eda84b; stroke:none;" d="M141 282L142 283L141 282z"/>
<path style="fill:#dfdcd8; stroke:none;" d="M142 282L142 283L145 283L142 282z"/>
<path style="fill:#e77f2b; stroke:none;" d="M145 282L146 283L145 282z"/>
<path style="fill:#eda84b; stroke:none;" d="M155 282L156 283L155 282z"/>
<path style="fill:#dfdcd8; stroke:none;" d="M161 282L162 283L161 282M179 282L180 283L179 282z"/>
<path style="fill:#eda84b; stroke:none;" d="M185 282L186 283L185 282z"/>
<path style="fill:#dfdcd8; stroke:none;" d="M243 282L244 283L243 282z"/>
<path style="fill:#eda84b; stroke:none;" d="M250 282L251 283L250 282z"/>
<path style="fill:#dfdcd8; stroke:none;" d="M251.667 282.333L252.333 282.667L251.667 282.333z"/>
<path style="fill:#eda84b; stroke:none;" d="M253 282L254 283L253 282M325 282L326 283L325 282z"/>
<path style="fill:#dfdcd8; stroke:none;" d="M326.667 282.333L327.333 282.667L326.667 282.333z"/>
<path style="fill:#eda84b; stroke:none;" d="M328 282L329 283L328 282M335 282L336 283L335 282M406 282L407 283L406 282M413 282L414 283L413 282z"/>
<path style="fill:#dfdcd8; stroke:none;" d="M414.667 282.333L415.333 282.667L414.667 282.333z"/>
<path style="fill:#eda84b; stroke:none;" d="M416 282L417 283L416 282z"/>
<path style="fill:#e77f2b; stroke:none;" d="M417 282L418 283L417 282z"/>
<path style="fill:#dfdcd8; stroke:none;" d="M427 282L428 283L427 282z"/>
<path style="fill:#e77f2b; stroke:none;" d="M441 282L442 283L441 282z"/>
<path style="fill:#eda84b; stroke:none;" d="M463 282L464 283L463 282z"/>
<path style="fill:#dfdcd8; stroke:none;" d="M464.667 282.333L465.333 282.667L464.667 282.333z"/>
<path style="fill:#eda84b; stroke:none;" d="M466 282L467 283L466 282M487 282L488 283L487 282z"/>
<path style="fill:#dfdcd8; stroke:none;" d="M488 282L488 283L491 283L488 282z"/>
<path style="fill:#eda84b; stroke:none;" d="M491 282L492 283L491 282z"/>
<path style="fill:#dfdcd8; stroke:none;" d="M498 282C494.339 286.149 490.248 285.997 485 286L485 287C489.201 287 498.138 288.022 498 282M504 282L505 283L504 282z"/>
<path style="fill:#e77f2b; stroke:none;" d="M511 282L512 283L511 282z"/>
<path style="fill:#dfdcd8; stroke:none;" d="M512 282L512 283L515 283L512 282z"/>
<path style="fill:#eda84b; stroke:none;" d="M515 282L516 283L515 282M522 282L523 283L522 282z"/>
<path style="fill:#dfdcd8; stroke:none;" d="M100 283L102 286L100 283M112 283L113 284L112 283z"/>
<path style="fill:#e77f2b; stroke:none;" d="M155.333 283.667L155.667 284.333L155.333 283.667z"/>
<path style="fill:#dfdcd8; stroke:none;" d="M156 283L152 286L152 287C154.758 286.549 156.688 286.046 156 283M162 283L163 284L162 283M178 283L179 284L178 283M185 283L188 286L188 285L185 283M244 283L245 284L244 283z"/>
<path style="fill:#e77f2b; stroke:none;" d="M280 283L281 284L280 283z"/>
<path style="fill:#eda84b; stroke:none;" d="M299 283L300 284L299 283M305 283L306 284L305 283M334 283L335 284L334 283M407 283L408 284L407 283z"/>
<path style="fill:#dfdcd8; stroke:none;" d="M423 283L424 284L423 283z"/>
<path style="fill:#eda84b; stroke:none;" d="M449 283L450 284L449 283z"/>
<path style="fill:#dfdcd8; stroke:none;" d="M457 283L457 285L459 285L457 283z"/>
<path style="fill:#eda84b; stroke:none;" d="M497 283L498 284L497 283z"/>
<path style="fill:#dfdcd8; stroke:none;" d="M505 283L506 284L505 283z"/>
<path style="fill:#eda84b; stroke:none;" d="M521 283L522 284L521 283M101 284L102 285L101 284M106 284L107 285L106 284z"/>
<path style="fill:#dfdcd8; stroke:none;" d="M113 284L113 285L125 287L125 286L113 284z"/>
<path style="fill:#e77f2b; stroke:none;" d="M114 284L115 285L114 284z"/>
<path style="fill:#dfdcd8; stroke:none;" d="M127 284L128 285L127 284M136 284L137 285L136 284M149.667 284.333L150.333 284.667L149.667 284.333M163 284L163 285L175 287L175 286L163 284z"/>
<path style="fill:#e77f2b; stroke:none;" d="M164 284L165 285L164 284z"/>
<path style="fill:#dfdcd8; stroke:none;" d="M177 284L178 285L177 284z"/>
<path style="fill:#eda84b; stroke:none;" d="M186 284L187 285L186 284z"/>
<path style="fill:#dfdcd8; stroke:none;" d="M245 284L246 285L245 284z"/>
<path style="fill:#eda84b; stroke:none;" d="M257 284L258 285L257 284z"/>
<path style="fill:#dfdcd8; stroke:none;" d="M258 284L261 286L258 284z"/>
<path style="fill:#eda84b; stroke:none;" d="M280 284L281 285L280 284z"/>
<path style="fill:#dfdcd8; stroke:none;" d="M299 284C301.123 287.264 303.877 287.264 306 284L305 284L299 284z"/>
<path style="fill:#eda84b; stroke:none;" d="M320 284L321 285L320 284M421 284L422 285L421 284z"/>
<path style="fill:#dfdcd8; stroke:none;" d="M422 284L423 285L422 284z"/>
<path style="fill:#eda84b; stroke:none;" d="M434.333 284.667L434.667 285.333L434.333 284.667z"/>
<path style="fill:#dfdcd8; stroke:none;" d="M435 284L435 285L446 287L446 286L435 284z"/>
<path style="fill:#eda84b; stroke:none;" d="M436 284L437 285L436 284M470 284L471 285L470 284z"/>
<path style="fill:#dfdcd8; stroke:none;" d="M471 284L473 286L473 284L471 284M481 284L482 285L481 284z"/>
<path style="fill:#eda84b; stroke:none;" d="M482 284L483 285L482 284M496 284L497 285L496 284z"/>
<path style="fill:#dfdcd8; stroke:none;" d="M506 284L506 285L518 287L518 286L506 284z"/>
<path style="fill:#eda84b; stroke:none;" d="M507 284L508 285L507 284z"/>
<path style="fill:#dfdcd8; stroke:none;" d="M107 285L102 286L102 287L107 285z"/>
<path style="fill:#eda84b; stroke:none;" d="M116 285L117 286L116 285z"/>
<path style="fill:#dfdcd8; stroke:none;" d="M125.667 285.333L126.333 285.667L125.667 285.333M137.667 285.333L138.333 285.667L137.667 285.333z"/>
<path style="fill:#e77f2b; stroke:none;" d="M146 285L147 286L146 285z"/>
<path style="fill:#dfdcd8; stroke:none;" d="M147.667 285.333L148.333 285.667L147.667 285.333M151 285L152 286L151 285z"/>
<path style="fill:#eda84b; stroke:none;" d="M155 285L156 286L155 285M166 285L167 286L166 285z"/>
<path style="fill:#dfdcd8; stroke:none;" d="M175.667 285.333L176.333 285.667L175.667 285.333z"/>
<path style="fill:#eda84b; stroke:none;" d="M194 285L195 286L194 285M238 285L239 286L238 285z"/>
<path style="fill:#dfdcd8; stroke:none;" d="M246 285L247 286L246 285z"/>
<path style="fill:#eda84b; stroke:none;" d="M247 285L248 286L247 285M255 285L256 286L255 285z"/>
<path style="fill:#dfdcd8; stroke:none;" d="M256.667 285.333L257.333 285.667L256.667 285.333z"/>
<path style="fill:#e77f2b; stroke:none;" d="M272 285L273 286L272 285z"/>
<path style="fill:#eda84b; stroke:none;" d="M278 285L279 286L278 285M300 285L301 286L300 285z"/>
<path style="fill:#e77f2b; stroke:none;" d="M304 285L305 286L304 285z"/>
<path style="fill:#dfdcd8; stroke:none;" d="M321 285L322 286L321 285z"/>
<path style="fill:#eda84b; stroke:none;" d="M322 285L323 286L322 285M331 285L332 286L331 285z"/>
<path style="fill:#dfdcd8; stroke:none;" d="M332 285L333 286L332 285M409.667 285.333L410.333 285.667L409.667 285.333z"/>
<path style="fill:#eda84b; stroke:none;" d="M419 285L420 286L419 285z"/>
<path style="fill:#dfdcd8; stroke:none;" d="M420.667 285.333L421.333 285.667L420.667 285.333M430 285L435 287L435 286L430 285z"/>
<path style="fill:#eda84b; stroke:none;" d="M438 285L439 286L438 285M446 285L447 286L446 285z"/>
<path style="fill:#dfdcd8; stroke:none;" d="M447 285L448 286L447 285M459 285L459 286L468 287L468 286L459 285z"/>
<path style="fill:#eda84b; stroke:none;" d="M460 285L461 286L460 285M468 285L469 286L468 285z"/>
<path style="fill:#dfdcd8; stroke:none;" d="M469 285L470 286L469 285z"/>
<path style="fill:#eda84b; stroke:none;" d="M473 285L474 286L473 285z"/>
<path style="fill:#dfdcd8; stroke:none;" d="M483.667 285.333L484.333 285.667L483.667 285.333z"/>
<path style="fill:#eda84b; stroke:none;" d="M494 285L495 286L494 285M509 285L510 286L509 285z"/>
<path style="fill:#dfdcd8; stroke:none;" d="M518.667 285.333L519.333 285.667L518.667 285.333M139 286L139 287L147 287L139 286M188 286L188 287L194 287L188 286M248 286L248 287L255 287L248 286M323 286L323 287L331 287L323 286M411 286L411 287L420 287L411 286z"/>
</svg>
